<svg width="739" height="193" viewBox="0 0 739 193" fill="none" xmlns="http://www.w3.org/2000/svg">
<g clip-path="url(#clip0_1562_3289)">
<path d="M141.41 132.882H26.68V133.412C28.63 144.442 33.53 153.202 41.35 159.692C49.18 166.192 59.05 169.432 70.97 169.432C88.05 169.432 100.32 163.832 107.79 152.622H135.81C130.65 165.072 122.34 174.902 110.86 182.102C99.39 189.302 86.09 192.912 70.97 192.912C50.16 192.912 33.12 186.372 19.87 173.302C6.62 160.222 0 143.642 0 123.542C0 103.442 6.62 86.8519 19.88 73.7819C33.13 60.7119 50.16 54.1719 70.98 54.1719C91.8 54.1719 108.51 60.7119 121.68 73.7819C134.84 86.8519 141.42 103.442 141.42 123.542V132.882H141.41ZM99.26 86.3219C91.43 80.5419 82 77.6519 70.98 77.6519C59.96 77.6519 50.57 80.5419 42.83 86.3219C35.09 92.1019 29.98 99.8919 27.49 109.672V110.202H114.74V109.672C112.25 99.8919 107.09 92.1119 99.27 86.3219H99.26Z" fill="black"/>
<path d="M298.298 124.596V189.436H275.088V161.956H274.558C270.468 171.386 263.928 178.896 254.948 184.506C245.968 190.106 235.508 192.906 223.598 192.906C205.458 192.906 189.798 186.686 176.638 174.226C163.468 161.776 156.898 144.876 156.898 123.526C156.898 103.426 163.518 86.8362 176.778 73.7662C190.028 60.6962 207.058 54.1562 227.878 54.1562C248.698 54.1562 265.628 60.6562 278.708 73.6362C291.778 86.6262 298.318 103.616 298.318 124.596H298.298ZM195.038 156.616C203.398 165.156 214.338 169.426 227.858 169.426C241.378 169.426 252.308 165.156 260.678 156.616C269.038 148.076 273.218 137.046 273.218 123.526C273.218 110.006 269.038 98.9762 260.678 90.4462C252.318 81.9062 241.378 77.6362 227.858 77.6362C214.338 77.6362 203.398 81.9062 195.038 90.4462C186.678 98.9862 182.498 110.016 182.498 123.526C182.498 137.036 186.678 148.076 195.038 156.616Z" fill="black"/>
<path d="M429.311 126.473V57.6328H454.661V126.473C454.661 147.823 448.791 164.223 437.051 175.703C425.311 187.173 409.481 192.913 389.561 192.913C369.641 192.913 353.811 187.223 342.071 175.833C330.331 164.453 324.461 147.993 324.461 126.473V57.6328H349.811V126.473C349.811 140.523 353.371 151.203 360.481 158.493C367.591 165.793 377.291 169.433 389.561 169.433C401.831 169.433 411.531 165.793 418.641 158.493C425.751 151.203 429.311 140.533 429.311 126.473Z" fill="black"/>
<path d="M510.959 189.44H485.609V0H510.959V189.44Z" fill="black"/>
<path d="M677.72 124.596V189.436H654.51V161.956H653.98C649.89 171.386 643.35 178.896 634.37 184.506C625.39 190.106 614.93 192.906 603.02 192.906C584.88 192.906 569.22 186.686 556.06 174.226C542.89 161.776 536.32 144.876 536.32 123.526C536.32 103.426 542.94 86.8362 556.2 73.7662C569.45 60.6962 586.48 54.1562 607.3 54.1562C628.12 54.1562 645.05 60.6562 658.13 73.6362C671.2 86.6262 677.74 103.616 677.74 124.596H677.72ZM574.46 156.616C582.82 165.156 593.76 169.426 607.28 169.426C620.8 169.426 631.73 165.156 640.1 156.616C648.46 148.076 652.64 137.046 652.64 123.526C652.64 110.006 648.46 98.9762 640.1 90.4462C631.74 81.9062 620.8 77.6362 607.28 77.6362C593.76 77.6362 582.82 81.9062 574.46 90.4462C566.1 98.9862 561.92 110.016 561.92 123.526C561.92 137.036 566.1 148.076 574.46 156.616Z" fill="black"/>
<path d="M719.547 133.858C719.157 133.308 718.247 133.308 717.847 133.858L713.127 140.368C709.767 144.998 698.797 160.798 698.797 169.538C698.797 180.508 707.727 189.438 718.697 189.438C729.667 189.438 738.597 180.508 738.597 169.538C738.597 160.798 727.627 144.998 724.267 140.368L719.547 133.858ZM705.147 165.618C705.937 167.918 706.787 169.938 707.857 171.778C711.127 177.528 716.397 181.158 722.717 183.208C712.837 186.478 701.847 175.518 705.137 165.618H705.147Z" fill="black"/>
</g>
<defs>
<clipPath id="clip0_1562_3289">
<rect width="738.61" height="192.91" fill="white"/>
</clipPath>
</defs>
</svg>
