<svg width="180" height="180" viewBox="0 0 180 180" fill="none" xmlns="http://www.w3.org/2000/svg">
<g clip-path="url(#clip0_1553_3769)">
<mask id="mask0_1553_3769" style="mask-type:luminance" maskUnits="userSpaceOnUse" x="22" y="0" width="136" height="180">
<path d="M157.176 0H22V180H157.176V0Z" fill="white"/>
</mask>
<g mask="url(#mask0_1553_3769)">
<path fill-rule="evenodd" clip-rule="evenodd" d="M41.1084 134.56C40.6518 133.514 40.6296 132.329 41.0467 131.266C41.4637 130.203 42.2858 129.35 43.3322 128.893C44.3786 128.437 45.5635 128.414 46.6262 128.832C47.689 129.249 48.5425 130.071 48.9991 131.117C52.6886 138.706 58.4688 145.084 65.6598 149.5C72.8508 153.916 81.1533 156.186 89.5907 156.043C90.7349 156.043 91.8322 156.498 92.6412 157.307C93.4503 158.116 93.9048 159.213 93.9048 160.357C93.9048 161.502 93.4503 162.599 92.6412 163.408C91.8322 164.217 90.7349 164.671 89.5907 164.671C79.4778 164.802 69.5387 162.036 60.9475 156.699C52.3564 151.362 45.4723 143.684 41.1084 134.56ZM89.5907 0.00580626C65.605 32.6718 22 78.1059 22 116.468C22 152.519 53.2609 180 89.5907 180C125.921 180 157.181 152.513 157.181 116.462C157.181 78.1059 113.576 32.666 89.5907 0M39.1401 104.246C39.4545 103.164 40.1811 102.249 41.1635 101.698C42.1459 101.146 43.3055 101.003 44.3926 101.298C45.4797 101.594 46.4073 102.304 46.9757 103.277C47.5441 104.249 47.7077 105.406 47.4314 106.498C46.4618 110.046 46.456 115.539 41.4684 114.738C36.2021 113.884 38.1763 107.811 39.1401 104.246Z" fill="#0078F4"/>
</g>
</g>
<defs>
<clipPath id="clip0_1553_3769">
<rect width="135.176" height="180" fill="white" transform="translate(22)"/>
</clipPath>
</defs>
</svg>
