<svg width="180" height="180" viewBox="0 0 180 180" fill="none" xmlns="http://www.w3.org/2000/svg">
<g clip-path="url(#clip0_1553_3769)">
<path d="M92.7083 1.32613C91.4545 -0.442043 88.529 -0.442043 87.2431 1.32613L72.0689 22.2549C61.267 37.1397 26 87.9344 26 116.032C26 151.299 54.7087 180.008 89.9757 180.008C125.243 180.008 153.951 151.299 153.951 116.032C153.951 87.9344 118.684 37.1397 107.882 22.2549L92.7083 1.32613ZM46.3822 103.43C48.922 110.824 51.6546 117.318 55.0945 123.234C65.6071 141.719 82.5494 153.389 102.867 159.979C71.1045 170.492 35.7732 135.257 46.3501 103.43H46.3822Z" fill="url(#paint0_linear_1553_3769)"/>
</g>
<defs>
<linearGradient id="paint0_linear_1553_3769" x1="-2113.68" y1="676.415" x2="-51.221" y2="128.57" gradientUnits="userSpaceOnUse">
<stop stop-color="#013577"/>
<stop offset="1" stop-color="#0078F4"/>
</linearGradient>
<clipPath id="clip0_1553_3769">
<rect width="127.951" height="180" fill="white" transform="translate(26)"/>
</clipPath>
</defs>
</svg>
