<svg width="180" height="180" viewBox="0 0 180 180" fill="none" xmlns="http://www.w3.org/2000/svg">
<g clip-path="url(#clip0_1553_3769)">
<mask id="mask0_1553_3769" style="mask-type:luminance" maskUnits="userSpaceOnUse" x="26" y="0" width="128" height="180">
<path d="M153.75 0H26.25V180H153.75V0Z" fill="white"/>
</mask>
<g mask="url(#mask0_1553_3769)">
<path d="M92.7158 1.75219C91.4638 -0.000728453 88.5459 -0.000728453 87.2844 1.75219L72.1485 22.6293C61.3833 37.4911 26.25 88.1517 26.25 116.185C26.25 151.381 54.8667 180 90 180C125.142 180 153.75 151.354 153.75 116.186C153.75 88.1552 118.608 37.4918 107.851 22.63L92.7158 1.75219ZM46.5608 103.615C49.1055 110.983 51.8036 117.475 55.2582 123.361C65.743 141.793 82.618 153.45 102.879 160.025C71.2233 170.52 36.0182 135.374 46.5608 103.614V103.615Z" fill="white"/>
</g>
<mask id="mask1_1553_3769" style="mask-type:luminance" maskUnits="userSpaceOnUse" x="26" y="0" width="128" height="180">
<path d="M46.5608 103.613C49.1055 110.982 51.8036 117.473 55.2582 123.361C65.743 141.792 82.618 153.448 102.877 160.024C99.0835 161.282 95.1126 161.92 91.1164 161.916C63.2483 161.917 37.3175 131.463 46.5608 103.613ZM87.286 1.75183L72.1487 22.629C61.3833 37.4907 26.25 88.1513 26.25 116.185C26.25 151.38 54.8667 180 90 180C125.142 180 153.75 151.354 153.75 116.185C153.75 88.1535 118.608 37.4903 107.851 22.6299L92.7158 1.75183C92.3915 1.34203 91.9789 1.01094 91.5087 0.78333C91.0385 0.555725 90.523 0.4375 90.0008 0.4375C89.4785 0.4375 88.963 0.555725 88.4929 0.78333C88.0227 1.01094 87.61 1.34203 87.2858 1.75183" fill="white"/>
</mask>
<g mask="url(#mask1_1553_3769)">
<path d="M102.883 168.742L96.1872 170.522H36.0234V103.617H102.883V168.742Z" fill="white"/>
<path d="M26.25 9.92723L63.5876 0H153.75V179.03L150.101 180H26.25V9.92723Z" fill="black"/>
</g>
</g>
<defs>
<clipPath id="clip0_1553_3769">
<rect width="127.5" height="180" fill="white" transform="translate(26.25)"/>
</clipPath>
</defs>
</svg>
